<svg id="Capa_1" enable-background="new 0 0 512 512" height="512" viewBox="0 0 512 512" width="512" xmlns="http://www.w3.org/2000/svg"><g><g><g><g><path d="m381.004 397.536c1.641-29.381-14.839-40.458-30.605-40.458h-66.204c-56.696-62.892-108.866 2.933-108.866 2.933h-46.286v67.907h46.286c39.944 41.936 49.563 48.439 92.643 48.439h101.74c6.09 0 12.076-1.58 17.371-4.585l102.331-68.069c7.735-4.025 12.586-12.012 12.586-20.722 0-14.913-13.8-26.009-28.391-22.83z" fill="#ffd0c7"/></g></g><g><g><g><g><g><path d="m10 320.712h69.528v145.709h-69.528z" fill="#bfdbff"/></g></g></g><g><g><path d="m79.528 340.695h49.516v105.743h-49.516z" fill="#faf7f5"/></g></g></g></g><g><g><g><g><g><path d="m286.81 109.94c29.62 0 52.859 32.978 52.859 32.978s21.921-32.978 52.872-32.978c30.105 0 54.689 24.794 56.298 54.815.906 16.959-4.569 29.867-12.283 41.556-15.415 23.355-96.986 89.978-96.986 89.978s-81.264-66.418-96.782-89.978c-7.73-11.743-13.19-24.597-12.28-41.556 1.61-30.02 26.195-54.815 56.302-54.815" fill="#ff7d97"/></g></g></g></g></g></g><g><g><g><g><g><g><path d="m220.958 105.212c-2.557 0-5.113-.974-7.065-2.924l-14.947-14.925c-3.908-3.902-3.913-10.234-.011-14.142s10.233-3.913 14.142-.01l14.947 14.925c3.908 3.902 3.913 10.234.011 14.142-1.954 1.956-4.515 2.934-7.077 2.934z"/></g></g></g></g><g><g><g><g><path d="m458.389 105.212c-2.562 0-5.123-.978-7.076-2.934-3.902-3.908-3.897-10.24.011-14.142l14.947-14.925c3.908-3.902 10.239-3.898 14.142.01 3.902 3.908 3.897 10.24-.011 14.142l-14.947 14.925c-1.953 1.95-4.51 2.924-7.066 2.924z"/></g></g></g></g><g><g><g><g><path d="m339.674 71.158c-5.522 0-10-4.477-10-10v-25.515c0-5.523 4.478-10 10-10s10 4.477 10 10v25.515c0 5.523-4.478 10-10 10z"/></g></g></g></g><g><g><g><path d="m339.57 306.29c-2.244 0-4.487-.753-6.328-2.257-8.439-6.897-82.905-68.082-98.805-92.22-7.09-10.77-15.078-25.912-13.914-47.593.917-17.117 8.174-33.189 20.434-45.256 12.464-12.267 28.748-19.022 45.853-19.022 23.181 0 42.341 16.2 52.706 27.238 10.116-11.101 28.961-27.238 53.025-27.238 17.104 0 33.387 6.756 45.851 19.023 12.259 12.066 19.517 28.139 20.434 45.256 1.175 21.975-7.383 37.69-13.922 47.6-15.799 23.937-90.537 85.297-99.007 92.215-1.841 1.502-4.084 2.254-6.327 2.254zm-52.76-186.35c-24.198 0-44.976 20.344-46.316 45.35-.673 12.541 2.512 23.164 10.648 35.523 11.034 16.753 62.728 61.202 88.432 82.522 25.79-21.374 77.679-65.929 88.638-82.532 8.132-12.323 11.314-22.945 10.644-35.514-1.341-25.004-22.117-45.348-46.314-45.348-25.107 0-44.365 28.248-44.557 28.533-1.835 2.733-4.904 4.397-8.196 4.435-.038 0-.076.001-.113.001-3.25 0-6.306-1.57-8.18-4.23-.194-.273-20.697-28.74-44.686-28.74z"/></g></g></g><g><g><g><path d="m267.47 420.18c-4.112 0-7.9-2.628-9.35-6.468-1.459-3.862-.348-8.324 2.756-11.048 3.188-2.798 7.915-3.262 11.591-1.147 3.661 2.107 5.641 6.473 4.803 10.613-.934 4.611-5.078 8.05-9.8 8.05z"/></g></g></g><path d="m499.565 357.007c-7.915-6.375-18.152-8.79-28.085-6.626-.552.12-1.092.287-1.614.497l-79.564 32.12c-1.892-11.729-6.755-19.301-11.136-23.932-7.311-7.731-17.527-11.988-28.768-11.988h-61.855c-18.022-18.696-37.606-27.825-58.35-27.179-29.227.927-51.315 21.427-59.394 30.112h-31.757v-9.316c0-5.523-4.477-10-10-10h-39.514v-9.983c0-5.523-4.478-10-10-10h-69.528c-5.523 0-10 4.477-10 10v145.708c0 5.523 4.477 10 10 10h69.528c5.522 0 10-4.477 10-10v-9.983h39.516c5.523 0 10-4.477 10-10v-8.52h32.008c38.7 40.402 51.344 48.439 96.921 48.439h101.739c7.807 0 15.52-2.036 22.308-5.889.205-.116.405-.24.602-.371l101.923-67.796c10.782-5.848 17.455-17.028 17.455-29.319 0-10.141-4.532-19.608-12.435-25.974zm-430.037 99.413h-49.528v-125.709h49.528zm20-19.982v-85.743h29.516v85.743zm395.269-41.605c-.316.165-.624.347-.921.544l-102.012 67.856c-3.714 2.045-7.908 3.124-12.152 3.124h-101.739c-38.668 0-45.852-3.813-85.402-45.336-1.888-1.981-4.505-3.103-7.241-3.103h-36.285v-47.907h36.285c3.054 0 5.94-1.396 7.837-3.789.202-.255 20.494-25.472 47.663-26.334 15.738-.497 31.201 7.537 45.939 23.885 1.896 2.104 4.596 3.304 7.428 3.304h66.204c3.293 0 9.521.745 14.237 5.73 3.36 3.553 5.449 8.742 6.183 15.253-.256 6.725-5.833 12.117-12.652 12.117h-45.429c-5.522 0-10 4.477-10 10s4.478 10 10 10h45.428c10.757 0 20.316-5.218 26.27-13.251.104-.038.207-.078.31-.119l91.711-37.023c3.764-.609 7.573.391 10.56 2.797 3.166 2.55 4.981 6.34 4.981 10.399 0 4.999-2.76 9.541-7.203 11.853z"/></g></g></g></svg>