<svg id="_x33_0" enable-background="new 0 0 64 64" height="512" viewBox="0 0 64 64" width="512" xmlns="http://www.w3.org/2000/svg"><g><g><g><circle cx="41" cy="41" fill="#b4dd7f" r="3"/></g><g><path d="m41 28c-7.18 0-13 5.82-13 13s5.82 13 13 13 13-5.82 13-13-5.82-13-13-13zm0 20c-3.866 0-7-3.134-7-7s3.134-7 7-7 7 3.134 7 7-3.134 7-7 7z" fill="#fcd770"/></g><g><path d="m62 37v8h-1.58c-1.62 0-3.07.97-3.69 2.47-.01.02-.02.03-.02.05-.63 1.5-.3 3.23.85 4.38l1.12 1.12-5.66 5.66-1.12-1.12c-1.15-1.15-2.88-1.48-4.38-.85-.02 0-.03.01-.05.02-1.5.62-2.47 2.07-2.47 3.69v1.58h-8v-1.58c0-1.62-.97-3.07-2.47-3.69-.02-.01-.03-.02-.05-.02-1.5-.63-3.23-.3-4.38.85l-1.12 1.12-1.05-1.05c-.27-2.53-1.26-4.84-2.76-6.73.53-1.03.59-2.27.12-3.38 0-.02-.01-.03-.02-.05-.62-1.5-2.07-2.47-3.69-2.47h-1.58v-1.1c1.24-1.26 2-2.98 2-4.9 0-.7-.1-1.37-.29-2 1.57-.05 2.96-1.02 3.56-2.47.01-.02.02-.03.02-.05.34-.8.4-1.67.21-2.48h2.5v-3c0-1.42-.23-2.78-.65-4.06h.01l1.62-1.62 1.12 1.12c1.15 1.15 2.88 1.48 4.38.85.02 0 .03-.01.05-.02 1.5-.62 2.47-2.07 2.47-3.69v-1.58h8v1.58c0 1.62.97 3.07 2.47 3.69.02.01.03.02.05.02 1.5.63 3.23.3 4.38-.85l1.12-1.12 5.66 5.66-1.12 1.12c-1.15 1.15-1.48 2.88-.85 4.38 0 .02.01.03.02.05.62 1.5 2.07 2.47 3.69 2.47zm-8 4c0-7.18-5.82-13-13-13s-13 5.82-13 13 5.82 13 13 13 13-5.82 13-13z" fill="#ffc729"/></g><g><path d="m58 3v10c0 .55-.45 1-1 1h-3l-1.66 3.32c-.21.42-.64.68-1.1.68-.69 0-1.24-.55-1.24-1.24v-2.76h-11c-.55 0-1-.45-1-1v-10c0-.55.45-1 1-1h18c.55 0 1 .45 1 1z" fill="#e6e9ed"/></g><g><path d="m13.82 19.76-1.67 7.25-4.85-8.48c1.38-1.02 2.98-1.77 4.7-2.18v.65c0 1.24.75 2.3 1.82 2.76z" fill="#ccd1d9"/></g><g><path d="m22.7 18.53-4.85 8.48-1.67-7.25c.35-.15.67-.37.94-.64.54-.54.88-1.29.88-2.12v-.65c1.72.41 3.32 1.16 4.7 2.18z" fill="#ccd1d9"/></g><g><path d="m12.15 27.01 2.85 4.99h-13v-3c0-4.3 2.09-8.11 5.3-10.47z" fill="#ff826e"/></g><g><path d="m28 29v3h-2.5-10.5l2.85-4.99 4.85-8.48c.53.39 1.03.82 1.49 1.28 1.42 1.42 2.52 3.17 3.16 5.13.42 1.28.65 2.64.65 4.06z" fill="#ff826e"/></g><g><path d="m16.18 19.76 1.67 7.25-2.85 4.99-2.85-4.99 1.67-7.25c.36.15.76.24 1.18.24s.82-.09 1.18-.24z" fill="#b4dd7f"/></g><g><path d="m12.15 57.01 2.85 4.99h-13v-3c0-4.3 2.09-8.11 5.3-10.47z" fill="#b4dd7f"/></g><g><path d="m28 59v3h-13l2.85-4.99 4.85-8.48c.53.39 1.03.82 1.49 1.28.34.34.67.71.98 1.09 1.5 1.89 2.49 4.2 2.76 6.73.05.45.07.91.07 1.37z" fill="#b4dd7f"/></g><g><path d="m16.18 49.76 1.67 7.25-2.85 4.99-2.85-4.99 1.67-7.25c.36.15.76.24 1.18.24s.82-.09 1.18-.24z" fill="#ff826e"/></g><g><path d="m13.82 49.76-1.67 7.25-4.85-8.48c1.38-1.02 2.98-1.77 4.7-2.18v.65c0 1.24.75 2.3 1.82 2.76z" fill="#ccd1d9"/></g><g><path d="m22.7 48.53-4.85 8.48-1.67-7.25c.35-.15.67-.37.94-.64.54-.54.88-1.29.88-2.12v-.65c1.72.41 3.32 1.16 4.7 2.18z" fill="#ccd1d9"/></g><g><path d="m21.71 37c.19.63.29 1.3.29 2 0 1.92-.76 3.64-2 4.9-1.27 1.3-3.04 2.1-5 2.1-3.87 0-7-3.13-7-7s3.13-7 7-7c3.18 0 5.85 2.11 6.71 5z" fill="#f0d0b4"/></g><g><circle cx="15" cy="9" fill="#f0d0b4" r="7"/></g><g><path d="m18 46.35v.65c0 .83-.34 1.58-.88 2.12-.27.27-.59.49-.94.64-.36.15-.76.24-1.18.24s-.82-.09-1.18-.24c-1.07-.46-1.82-1.52-1.82-2.76v-.65c.96-.23 1.97-.35 3-.35s2.04.12 3 .35z" fill="#f0d0b4"/></g><g><path d="m18 16.35v.65c0 .83-.34 1.58-.88 2.12-.27.27-.59.49-.94.64-.36.15-.76.24-1.18.24s-.82-.09-1.18-.24c-1.07-.46-1.82-1.52-1.82-2.76v-.65c.96-.23 1.97-.35 3-.35s2.04.12 3 .35z" fill="#f0d0b4"/></g></g><g><path d="m41 27c-7.72 0-14 6.28-14 14s6.28 14 14 14 14-6.28 14-14-6.28-14-14-14zm11.949 13h-4.019c-.453-3.612-3.319-6.477-6.931-6.931v-4.019c5.82.484 10.467 5.131 10.95 10.95zm-11.949 7c-3.309 0-6-2.691-6-6s2.691-6 6-6 6 2.691 6 6-2.691 6-6 6zm-1-17.949v4.019c-3.612.453-6.477 3.319-6.931 6.931h-4.019c.484-5.82 5.131-10.467 10.95-10.95zm-10.949 12.949h4.019c.453 3.612 3.319 6.477 6.931 6.931v4.019c-5.82-.484-10.467-5.131-10.95-10.95zm12.949 10.949v-4.019c3.612-.453 6.477-3.319 6.931-6.931h4.019c-.484 5.82-5.131 10.467-10.95 10.95z"/><path d="m41 37c-2.206 0-4 1.794-4 4s1.794 4 4 4 4-1.794 4-4-1.794-4-4-4zm0 6c-1.103 0-2-.897-2-2s.897-2 2-2 2 .897 2 2-.897 2-2 2z"/><path d="m60.423 36c-1.219 0-2.307-.727-2.795-1.905-.475-1.135-.222-2.427.642-3.292l1.825-1.824-7.075-7.075-1.824 1.825c-.864.865-2.156 1.117-3.343.621-1.126-.466-1.853-1.554-1.853-2.773v-2.577h-10v2.577c0 1.219-.728 2.307-1.905 2.795-1.136.475-2.427.222-3.292-.642l-1.824-1.825-1.267 1.267c-1.619-3.516-4.644-6.25-8.359-7.47 2.192-1.428 3.647-3.897 3.647-6.702 0-4.411-3.589-8-8-8s-8 3.589-8 8c0 2.805 1.455 5.274 3.646 6.702-5.593 1.836-9.646 7.099-9.646 13.298v4h8.726c-1.667 1.467-2.726 3.61-2.726 6 0 2.805 1.455 5.274 3.646 6.702-5.593 1.836-9.646 7.099-9.646 13.298v4h28v-2.925l1.804-1.805c.865-.864 2.158-1.115 3.343-.621 1.125.467 1.853 1.555 1.853 2.774v2.577h10v-2.577c0-1.219.727-2.307 1.905-2.795 1.135-.476 2.426-.222 3.292.642l1.824 1.825 7.075-7.075-1.825-1.824c-.864-.865-1.117-2.157-.621-3.343.466-1.126 1.554-1.853 2.773-1.853h2.577v-10zm-33.423-7v2h-10.277l6.252-10.941c2.463 2.199 4.025 5.387 4.025 8.941zm-6.726 4h4.323c-.011.379-.086.762-.246 1.147-.359.866-1.101 1.497-1.982 1.739-.473-1.116-1.198-2.096-2.095-2.886zm-9.206-15.325c.182 1.059.776 1.974 1.617 2.575l-.934 4.049-3.116-5.453c.759-.478 1.573-.871 2.433-1.171zm3.932-.675c.677 0 1.336.07 1.982.178-.092 1.019-.94 1.822-1.982 1.822s-1.89-.803-1.982-1.822c.646-.108 1.305-.178 1.982-.178zm6.365 1.846-3.116 5.453-.934-4.049c.841-.601 1.435-1.516 1.617-2.575.86.3 1.674.693 2.433 1.171zm-6.79 2.111c.141.015.279.043.425.043s.284-.028.425-.043l1.361 5.901-1.786 3.127-1.787-3.127zm-5.575-11.957c0-3.309 2.691-6 6-6s6 2.691 6 6-2.691 6-6 6-6-2.691-6-6zm-6 20c0-3.554 1.562-6.742 4.025-8.941l6.252 10.941h-10.277zm6 10c0-3.309 2.691-6 6-6s6 2.691 6 6-2.691 6-6 6-6-2.691-6-6zm11.166 7h1.411c1.219 0 2.307.727 2.795 1.904.123.295.181.604.207.914-1.272-1.197-2.763-2.16-4.413-2.818zm-9.098 1.675c.182 1.059.776 1.974 1.617 2.575l-.934 4.049-3.116-5.453c.759-.478 1.573-.871 2.433-1.171zm3.932-.675c.677 0 1.336.07 1.982.178-.092 1.019-.94 1.822-1.982 1.822s-1.89-.803-1.982-1.822c.646-.108 1.305-.178 1.982-.178zm-.425 3.957c.141.015.279.043.425.043s.284-.028.425-.043l1.361 5.901-1.786 3.127-1.787-3.127zm3.674 3.342-.934-4.049c.841-.601 1.435-1.516 1.617-2.575.86.3 1.674.693 2.433 1.171zm-15.249 4.701c0-3.554 1.562-6.742 4.025-8.941l6.252 10.941h-10.277zm24 2h-10.277l6.252-10.941c2.463 2.199 4.025 5.387 4.025 8.941zm34-17h-.577c-2.03 0-3.844 1.212-4.641 3.133-.788 1.887-.367 4.037 1.074 5.477l.41.41-4.246 4.246-.41-.41c-1.441-1.441-3.591-1.863-5.523-1.054-1.875.777-3.087 2.591-3.087 4.621v.577h-6v-.577c0-2.03-1.212-3.844-3.133-4.641-1.889-.788-4.038-.367-5.477 1.074l-.41.41-.117-.117c-.314-2.361-1.216-4.533-2.557-6.372.425-1.176.399-2.478-.107-3.689-.778-1.876-2.592-3.088-4.622-3.088h-.342c1.102-1.371 1.765-3.109 1.765-5 0-.406-.04-.802-.099-1.192 1.466-.407 2.704-1.464 3.317-2.942.251-.6.366-1.231.375-1.866h2.407v-4c0-1.303-.193-2.56-.527-3.759l.507-.507.41.41c1.44 1.44 3.589 1.862 5.523 1.054 1.875-.777 3.087-2.591 3.087-4.621v-.577h6v.577c0 2.03 1.212 3.844 3.133 4.641 1.888.787 4.037.367 5.477-1.074l.41-.41 4.246 4.246-.41.41c-1.44 1.44-1.862 3.59-1.054 5.523.777 1.875 2.591 3.087 4.621 3.087h.577z"/><path d="m39 15h10v1.764c0 1.233 1.003 2.236 2.236 2.236.852 0 1.619-.474 2-1.236l1.382-2.764h2.382c1.103 0 2-.897 2-2v-10c0-1.103-.897-2-2-2h-18c-1.103 0-2 .897-2 2v10c0 1.103.897 2 2 2zm0-12h18v10h-3.618l-1.934 3.869c-.098.196-.448.114-.448-.105v-3.764h-12l-.001-10z"/><path d="m51 7h2v2h-2z"/><path d="m47 7h2v2h-2z"/><path d="m43 7h2v2h-2z"/></g></g></svg>