<svg id="Layer_1" enable-background="new 0 0 512.045 512.045" height="512" viewBox="0 0 512.045 512.045" width="512" xmlns="http://www.w3.org/2000/svg"><g><circle cx="256.022" cy="166.661" fill="#a5e887" r="151.66"/><path d="m256.022 15v303.321c83.76 0 151.66-67.901 151.66-151.66s-67.9-151.661-151.66-151.661z" fill="#00cc76"/><path d="m422.683 166.661c0-91.897-74.764-166.661-166.661-166.661-91.896 0-166.66 74.764-166.66 166.661 0 75.973 51.1 140.232 120.733 160.222v58.188h-53.493l99.409 126.975 99.408-126.975h-53.492v-58.181c69.645-19.983 120.756-84.248 120.756-160.229zm-303.321 0c0-75.355 61.306-136.661 136.66-136.661 75.355 0 136.661 61.306 136.661 136.661 0 75.354-61.306 136.66-136.661 136.66-75.354 0-136.66-61.305-136.66-136.66z" fill="#00cc76"/><path d="m422.683 166.661c0-91.897-74.764-166.661-166.661-166.661v30c75.355 0 136.661 61.306 136.661 136.661 0 75.354-61.306 136.66-136.661 136.66v208.709l99.396-126.96h-53.492v-58.181c69.646-19.982 120.757-84.247 120.757-160.228z" fill="#009986"/><path d="m275.57 150.547h-31.455c-6.896 0-12.505-5.609-12.505-12.505s5.61-12.506 12.505-12.506h53.106v-30h-26.232v-19.45h-30v19.577c-21.982 1.607-39.379 19.994-39.379 42.379 0 23.438 19.068 42.505 42.505 42.505h31.455c7.51 0 13.619 6.109 13.619 13.619s-6.109 13.619-13.619 13.619h-67.78v30h33.199v19.45h30v-19.45h4.581c24.052 0 43.619-19.567 43.619-43.619s-19.568-43.619-43.619-43.619z" fill="#fff5f5"/><g fill="#e1ebf0"><path d="m297.221 125.536v-30h-26.232v-19.45h-14.967v49.45z"/><path d="m270.989 237.785h4.581c24.052 0 43.619-19.567 43.619-43.619s-19.567-43.619-43.619-43.619h-19.547v30h19.547c7.51 0 13.619 6.109 13.619 13.619s-6.109 13.619-13.619 13.619h-19.547v49.45h14.967v-19.45z"/></g></g></svg>