<?xml version="1.0" encoding="iso-8859-1"?>

<!DOCTYPE svg PUBLIC "-//W3C//DTD SVG 1.1//EN" "http://www.w3.org/Graphics/SVG/1.1/DTD/svg11.dtd">
<svg version="1.1" id="Capa_1" xmlns="http://www.w3.org/2000/svg" xmlns:xlink="http://www.w3.org/1999/xlink" x="0px" y="0px"
	 viewBox="0 0 480.098 480.098" style="enable-background:new 0 0 480.098 480.098;" xml:space="preserve">
<path style="fill:#5A6470;" d="M472.098,456.044h-464c-4.418,0-8-3.582-8-8s3.582-8,8-8h456v-368c0-4.418,3.582-8,8-8s8,3.582,8,8
	v376C480.098,452.462,476.517,456.044,472.098,456.044z"/>
<path style="fill:#FDBD40;" d="M48.098,240.044h96v176h-96V240.044z"/>
<path style="fill:#E9686A;" d="M192.098,144.044h96v272h-96V144.044z"/>
<path style="fill:#238892;" d="M336.098,64.044h96v352h-96V64.044z"/>
<path style="fill:#E9686A;" d="M168.098,40.044l26.344,26.344l-66.344,66.344l-18.344-18.344c-3.124-3.123-8.188-3.123-11.312,0
	l-96,96c-3.178,3.069-3.266,8.134-0.197,11.312s8.134,3.266,11.312,0.197c0.067-0.064,0.132-0.13,0.197-0.197l90.344-90.344
	l18.344,18.344c3.124,3.123,8.188,3.123,11.312,0l72-72l26.344,26.344l8-72L168.098,40.044z"/>
<g>
	<path style="fill:#FFFFFF;" d="M80.098,392.044c-4.418,0-8-3.582-8-8v-16c0-4.418,3.582-8,8-8s8,3.582,8,8v16
		C88.098,388.462,84.517,392.044,80.098,392.044z"/>
	<path style="fill:#FFFFFF;" d="M80.098,344.044c-4.418,0-8-3.582-8-8v-32c0-4.418,3.582-8,8-8s8,3.582,8,8v32
		C88.098,340.462,84.517,344.044,80.098,344.044z"/>
	<path style="fill:#FFFFFF;" d="M224.098,392.044c-4.418,0-8-3.582-8-8v-16c0-4.418,3.582-8,8-8s8,3.582,8,8v16
		C232.098,388.462,228.517,392.044,224.098,392.044z"/>
	<path style="fill:#FFFFFF;" d="M224.098,344.044c-4.418,0-8-3.582-8-8v-80c0-4.418,3.582-8,8-8s8,3.582,8,8v80
		C232.098,340.462,228.517,344.044,224.098,344.044z"/>
	<path style="fill:#FFFFFF;" d="M368.098,392.044c-4.418,0-8-3.582-8-8v-16c0-4.418,3.582-8,8-8s8,3.582,8,8v16
		C376.098,388.462,372.517,392.044,368.098,392.044z"/>
	<path style="fill:#FFFFFF;" d="M368.098,344.044c-4.418,0-8-3.582-8-8v-160c0-4.418,3.582-8,8-8s8,3.582,8,8v160
		C376.098,340.462,372.517,344.044,368.098,344.044z"/>
</g>
<path d="M472.098,64.044c-4.418,0-8,3.582-8,8v368h-456c-4.418,0-8,3.582-8,8s3.582,8,8,8h464c4.418,0,8-3.582,8-8v-376
	C480.098,67.625,476.517,64.044,472.098,64.044z"/>
<path d="M48.098,232.044c-4.418,0-8,3.582-8,8v176c0,4.418,3.582,8,8,8h96c4.418,0,8-3.582,8-8v-176c0-4.418-3.582-8-8-8H48.098z
	 M136.098,408.044h-80v-160h80V408.044z"/>
<path d="M192.098,136.044c-4.418,0-8,3.582-8,8v272c0,4.418,3.582,8,8,8h96c4.418,0,8-3.582,8-8v-272c0-4.418-3.582-8-8-8H192.098z
	 M280.098,408.044h-80v-256h80V408.044z"/>
<path d="M336.098,424.044h96c4.418,0,8-3.582,8-8v-352c0-4.418-3.582-8-8-8h-96c-4.418,0-8,3.582-8,8v352
	C328.098,420.462,331.68,424.044,336.098,424.044z M344.098,72.044h80v336h-80V72.044z"/>
<path d="M2.442,221.7c3.124,3.123,8.188,3.123,11.312,0l90.344-90.344l18.344,18.344c3.124,3.123,8.188,3.123,11.312,0
	l66.344-66.344l26.344,26.344c3.13,3.119,8.195,3.11,11.314-0.02c1.283-1.287,2.089-2.974,2.286-4.78l8-72
	c0.467-4.394-2.717-8.333-7.111-8.8c-0.562-0.06-1.128-0.06-1.689,0l-72,8c-4.392,0.479-7.565,4.427-7.086,8.82
	c0.197,1.807,1.003,3.493,2.286,4.78l26.344,26.344l-60.688,60.688l-18.344-18.344c-3.124-3.123-8.188-3.123-11.312,0l-96,96
	C-0.681,213.512-0.681,218.576,2.442,221.7L2.442,221.7z M231.042,41.1l-5.056,45.512L185.53,46.156L231.042,41.1z"/>
<path d="M80.098,392.044c4.418,0,8-3.582,8-8v-16c0-4.418-3.582-8-8-8s-8,3.582-8,8v16C72.098,388.462,75.68,392.044,80.098,392.044
	z"/>
<path d="M80.098,344.044c4.418,0,8-3.582,8-8v-32c0-4.418-3.582-8-8-8s-8,3.582-8,8v32C72.098,340.462,75.68,344.044,80.098,344.044
	z"/>
<path d="M224.098,392.044c4.418,0,8-3.582,8-8v-16c0-4.418-3.582-8-8-8s-8,3.582-8,8v16
	C216.098,388.462,219.68,392.044,224.098,392.044z"/>
<path d="M224.098,344.044c4.418,0,8-3.582,8-8v-80c0-4.418-3.582-8-8-8s-8,3.582-8,8v80
	C216.098,340.462,219.68,344.044,224.098,344.044z"/>
<path d="M368.098,360.044c-4.418,0-8,3.582-8,8v16c0,4.418,3.582,8,8,8s8-3.582,8-8v-16
	C376.098,363.625,372.517,360.044,368.098,360.044z"/>
<path d="M368.098,168.044c-4.418,0-8,3.582-8,8v160c0,4.418,3.582,8,8,8s8-3.582,8-8v-160
	C376.098,171.625,372.517,168.044,368.098,168.044z"/>
<g>
</g>
<g>
</g>
<g>
</g>
<g>
</g>
<g>
</g>
<g>
</g>
<g>
</g>
<g>
</g>
<g>
</g>
<g>
</g>
<g>
</g>
<g>
</g>
<g>
</g>
<g>
</g>
<g>
</g>
</svg>
